<?xml version="1.0" encoding="iso-8859-1"?>
<!-- Uploaded to: SVG Repo, www.svgrepo.com, Generator: SVG Repo Mixer Tools -->
<svg height="800px" width="800px" version="1.1" id="Layer_1" xmlns="http://www.w3.org/2000/svg" xmlns:xlink="http://www.w3.org/1999/xlink" 
	 viewBox="0 0 512 512" xml:space="preserve">
<path style="fill:#FF835D;" d="M431.341,512H80.659c-9.22,0-16.696-7.475-16.696-16.696V42.657c0-9.22,7.475-16.696,16.696-16.696
	h111.774c9.22,0,16.696,7.475,16.696,16.696v9.267h93.743v-9.267c0-9.22,7.475-16.696,16.696-16.696h111.774
	c9.22,0,16.696,7.475,16.696,16.696v452.647C448.037,504.525,440.561,512,431.341,512z"/>
<path style="fill:#FB5858;" d="M431.341,25.962H319.567c-9.22,0-16.696,7.475-16.696,16.696v9.267H256V512h175.341
	c9.22,0,16.696-7.475,16.696-16.696V42.657C448.037,33.437,440.561,25.962,431.341,25.962z"/>
<path style="fill:#FAE8AC;" d="M374.46,455.119H137.54c-9.22,0-16.696-7.475-16.696-16.696V114.904
	c0-9.22,7.475-16.696,16.696-16.696h236.919c9.22,0,16.696,7.475,16.696,16.696v323.519
	C391.156,447.644,383.681,455.119,374.46,455.119z"/>
<g>
	<path style="fill:#F6D86E;" d="M374.46,98.208H256v356.911h118.46c9.22,0,16.696-7.475,16.696-16.696V114.904
		C391.156,105.683,383.681,98.208,374.46,98.208z"/>
	<path style="fill:#F6D86E;" d="M319.567,85.316H192.433c-9.22,0-16.696-7.475-16.696-16.696V16.696
		c0-9.22,7.475-16.696,16.696-16.696h127.134c9.22,0,16.696,7.475,16.696,16.696V68.62
		C336.263,77.841,328.787,85.316,319.567,85.316z"/>
</g>
<g>
	<path style="fill:#FBB071;" d="M225.926,318.52l-23.563-23.563c-6.52-6.52-6.52-17.091,0-23.611c6.519-6.52,17.091-6.52,23.611,0
		l11.758,11.758l48.296-48.295c6.519-6.52,17.091-6.52,23.611,0c6.52,6.52,6.52,17.091,0,23.611l-60.101,60.101
		C243.019,325.04,232.446,325.041,225.926,318.52z"/>
	<path style="fill:#FBB071;" d="M319.567,0H256v85.316h63.567c9.22,0,16.696-7.475,16.696-16.696V16.696
		C336.263,7.475,328.787,0,319.567,0z"/>
</g>
<path style="fill:#FF835D;" d="M309.638,234.808c-6.519-6.52-17.091-6.52-23.611,0L256,264.835v47.222l53.638-53.638
	C316.158,251.898,316.158,241.328,309.638,234.808z"/>
</svg>